<svg width="835" height="1794" viewBox="0 0 835 1794" fill="none" xmlns="http://www.w3.org/2000/svg">
<g opacity="0.67">
<g filter="url(#filter0_f_39_330)">
<path d="M292.728 1261.57C254.699 1289.26 -519.197 1492.66 -384.395 483.548C-200.159 356.246 143.785 949.19 292.728 1261.57Z" fill="#37E7FF"/>
<path d="M-153.197 408.595C-298.762 553.238 -365.521 868.169 119.578 1158.11C672.046 1488.32 222.374 681.783 -153.197 408.595Z" fill="#3B37FF"/>
</g>
<g style="mix-blend-mode:color-dodge" filter="url(#filter1_f_39_330)">
<path d="M145.257 1077.19C102.621 1098.83 -631.959 1245.45 -143.986 425.034C60.0563 325.735 133.86 818.427 145.257 1077.19Z" fill="#37E7FF"/>
<path d="M-525.664 406.856C-645.736 612.286 -619.583 1014.17 32.7802 1284.98C775.74 1593.41 -4.68092 676.813 -525.664 406.856Z" fill="#3B37FF"/>
</g>
</g>
<defs>
<filter id="filter0_f_39_330" x="-500.142" y="308.595" width="978.021" height="1088.06" filterUnits="userSpaceOnUse" color-interpolation-filters="sRGB">
<feFlood flood-opacity="0" result="BackgroundImageFix"/>
<feBlend mode="normal" in="SourceGraphic" in2="BackgroundImageFix" result="shape"/>
<feGaussianBlur stdDeviation="50" result="effect1_foregroundBlur_39_330"/>
</filter>
<filter id="filter1_f_39_330" x="-681.597" y="306.856" width="1119.95" height="1140.77" filterUnits="userSpaceOnUse" color-interpolation-filters="sRGB">
<feFlood flood-opacity="0" result="BackgroundImageFix"/>
<feBlend mode="normal" in="SourceGraphic" in2="BackgroundImageFix" result="shape"/>
<feGaussianBlur stdDeviation="50" result="effect1_foregroundBlur_39_330"/>
</filter>
</defs>
</svg>
