<svg width="601" height="849" viewBox="0 0 601 849" fill="none" xmlns="http://www.w3.org/2000/svg">
<g opacity="0.8">
<g filter="url(#filter0_f_39_337)">
<path d="M1052.75 428.946C841.645 301.3 192.021 886.073 183.316 898.074C-185.566 1318.11 794.854 1142.46 818.794 1142.46C465.146 879.527 1032.07 612.233 1052.75 428.946Z" fill="#3B37FF"/>
<path d="M880.464 253.102C880.156 102.497 519.488 285.233 339.192 395.427C195.731 600.961 668.583 917.07 686.055 726.448C713.423 427.852 880.848 441.36 880.464 253.102Z" fill="#37E7FF"/>
<path d="M831.124 301.232C836.184 130.972 423.942 361.44 217.188 497.957C11.1955 633.738 704.745 1064.26 560.232 859.181C415.719 654.104 824.8 514.056 831.124 301.232Z" fill="#FF37D3"/>
<path d="M802.656 302.11C685.131 231.231 323.466 555.941 318.62 562.605C113.253 795.839 659.081 698.304 672.409 698.304C475.523 552.306 791.146 403.884 802.656 302.11Z" fill="#EB1B1B"/>
<path d="M804.144 424.332C812.418 328.454 495.623 520.41 336.192 628.372C269.4 672.437 392.35 735.364 518.293 864.362C644.235 993.36 682.683 863.885 676.089 692.123C669.496 520.362 793.803 544.179 804.144 424.332Z" fill="#FFF500"/>
<path d="M780.951 433.472C769.938 399.795 464.14 597.164 312.618 700.058C433.614 787.691 669.034 934.754 642.749 821.945C609.893 680.934 673.137 586.147 706.715 552.812C740.293 519.478 794.718 475.568 780.951 433.472Z" fill="white"/>
</g>
<g style="mix-blend-mode:color-dodge" filter="url(#filter1_f_39_337)">
<path d="M1030.2 309.745C795.876 232.626 293.74 948.049 287.945 961.695C22.5175 1453.68 938.684 1062.89 962.015 1057.53C558.459 880.493 1051.11 493.007 1030.2 309.745Z" fill="#3B37FF"/>
<path d="M848.963 224.023C848.655 73.4177 487.987 256.154 307.691 366.348C164.23 571.882 637.082 887.99 654.553 697.369C681.922 398.773 849.347 412.281 848.963 224.023Z" fill="#37E7FF"/>
<path d="M1004.38 353.824C1042.1 274.803 637.358 526.22 390.448 550.55C184.455 686.331 878.005 1116.85 733.492 911.773C588.979 706.697 912.677 545.981 1004.38 353.824Z" fill="#FF37D3"/>
<path d="M761.057 182.749C629.282 144.389 363.015 551.009 360.04 558.693C221.375 836.804 723.919 602.516 736.801 599.098C509.051 508.49 776.04 284.07 761.057 182.749Z" fill="#EB1B1B"/>
<path d="M871.139 571.431C925.878 492.281 555.588 501.835 363.601 516.505C283.748 521.639 359.298 637.263 404.675 811.742C450.053 986.22 547.656 892.863 627.123 740.448C706.591 588.033 802.716 670.369 871.139 571.431Z" fill="#FFF500"/>
<path d="M841.614 457.077C831.127 423.233 522.287 615.807 369.177 716.324C488.791 805.834 721.888 956.552 697.367 843.347C666.715 701.841 731.43 608.052 765.524 575.245C799.618 542.439 854.722 499.383 841.614 457.077Z" fill="white"/>
</g>
</g>
<defs>
<filter id="filter0_f_39_337" x="0.423218" y="96.0244" width="1152.32" height="1182.87" filterUnits="userSpaceOnUse" color-interpolation-filters="sRGB">
<feFlood flood-opacity="0" result="BackgroundImageFix"/>
<feBlend mode="normal" in="SourceGraphic" in2="BackgroundImageFix" result="shape"/>
<feGaussianBlur stdDeviation="50" result="effect1_foregroundBlur_39_337"/>
</filter>
<filter id="filter1_f_39_337" x="139.74" y="66.9453" width="991.115" height="1242.82" filterUnits="userSpaceOnUse" color-interpolation-filters="sRGB">
<feFlood flood-opacity="0" result="BackgroundImageFix"/>
<feBlend mode="normal" in="SourceGraphic" in2="BackgroundImageFix" result="shape"/>
<feGaussianBlur stdDeviation="50" result="effect1_foregroundBlur_39_337"/>
</filter>
</defs>
</svg>
